<svg width="736" height="272" viewBox="0 0 736 272" fill="none" xmlns="http://www.w3.org/2000/svg">
  <path d="M57.6875 57.4375H21.0625V96H5.25V5H63.0625V17.75H21.0625V44.8125H57.6875V57.4375ZM107.938 42.25C105.938 41.9167 103.875 41.75 101.75 41.75C94.7917 41.75 90.1042 44.4167 87.6875 49.75V96H72.5V28.375H87L87.375 35.9375C91.0417 30.0625 96.125 27.125 102.625 27.125C104.792 27.125 106.583 27.4167 108 28L107.938 42.25ZM112.438 61.5625C112.438 54.9375 113.75 48.9792 116.375 43.6875C119 38.3542 122.688 34.2708 127.438 31.4375C132.188 28.5625 137.646 27.125 143.812 27.125C152.938 27.125 160.333 30.0625 166 35.9375C171.708 41.8125 174.792 49.6042 175.25 59.3125L175.312 62.875C175.312 69.5417 174.021 75.5 171.438 80.75C168.896 86 165.229 90.0625 160.438 92.9375C155.688 95.8125 150.188 97.25 143.938 97.25C134.396 97.25 126.75 94.0833 121 87.75C115.292 81.375 112.438 72.8958 112.438 62.3125V61.5625ZM127.625 62.875C127.625 69.8333 129.062 75.2917 131.938 79.25C134.812 83.1667 138.812 85.125 143.938 85.125C149.062 85.125 153.042 83.125 155.875 79.125C158.75 75.125 160.188 69.2708 160.188 61.5625C160.188 54.7292 158.708 49.3125 155.75 45.3125C152.833 41.3125 148.854 39.3125 143.812 39.3125C138.854 39.3125 134.917 41.2917 132 45.25C129.083 49.1667 127.625 55.0417 127.625 62.875ZM202.25 28.375L202.688 36.1875C207.688 30.1458 214.25 27.125 222.375 27.125C236.458 27.125 243.625 35.1875 243.875 51.3125V96H228.688V52.1875C228.688 47.8958 227.75 44.7292 225.875 42.6875C224.042 40.6042 221.021 39.5625 216.812 39.5625C210.688 39.5625 206.125 42.3333 203.125 47.875V96H187.938V28.375H202.25ZM278.438 11.9375V28.375H290.375V39.625H278.438V77.375C278.438 79.9583 278.938 81.8333 279.938 83C280.979 84.125 282.812 84.6875 285.438 84.6875C287.188 84.6875 288.958 84.4792 290.75 84.0625V95.8125C287.292 96.7708 283.958 97.25 280.75 97.25C269.083 97.25 263.25 90.8125 263.25 77.9375V39.625H252.125V28.375H263.25V11.9375H278.438ZM331.812 97.25C322.188 97.25 314.375 94.2292 308.375 88.1875C302.417 82.1042 299.438 74.0208 299.438 63.9375V62.0625C299.438 55.3125 300.729 49.2917 303.312 44C305.938 38.6667 309.604 34.5208 314.312 31.5625C319.021 28.6042 324.271 27.125 330.062 27.125C339.271 27.125 346.375 30.0625 351.375 35.9375C356.417 41.8125 358.938 50.125 358.938 60.875V67H314.75C315.208 72.5833 317.062 77 320.312 80.25C323.604 83.5 327.729 85.125 332.688 85.125C339.646 85.125 345.312 82.3125 349.688 76.6875L357.875 84.5C355.167 88.5417 351.542 91.6875 347 93.9375C342.5 96.1458 337.438 97.25 331.812 97.25ZM330 39.3125C325.833 39.3125 322.458 40.7708 319.875 43.6875C317.333 46.6042 315.708 50.6667 315 55.875H343.938V54.75C343.604 49.6667 342.25 45.8333 339.875 43.25C337.5 40.625 334.208 39.3125 330 39.3125ZM384.875 28.375L385.312 36.1875C390.312 30.1458 396.875 27.125 405 27.125C419.083 27.125 426.25 35.1875 426.5 51.3125V96H411.312V52.1875C411.312 47.8958 410.375 44.7292 408.5 42.6875C406.667 40.6042 403.646 39.5625 399.438 39.5625C393.312 39.5625 388.75 42.3333 385.75 47.875V96H370.562V28.375H384.875ZM439.188 61.6875C439.188 51.2708 441.604 42.9167 446.438 36.625C451.271 30.2917 457.75 27.125 465.875 27.125C473.042 27.125 478.833 29.625 483.25 34.625V0H498.438V96H484.688L483.938 89C479.396 94.5 473.333 97.25 465.75 97.25C457.833 97.25 451.417 94.0625 446.5 87.6875C441.625 81.3125 439.188 72.6458 439.188 61.6875ZM454.375 63C454.375 69.875 455.688 75.25 458.312 79.125C460.979 82.9583 464.75 84.875 469.625 84.875C475.833 84.875 480.375 82.1042 483.25 76.5625V47.6875C480.458 42.2708 475.958 39.5625 469.75 39.5625C464.833 39.5625 461.042 41.5208 458.375 45.4375C455.708 49.3125 454.375 55.1667 454.375 63ZM0.9375 211.688C0.9375 201.271 3.35417 192.917 8.1875 186.625C13.0208 180.292 19.5 177.125 27.625 177.125C34.7917 177.125 40.5833 179.625 45 184.625V150H60.1875V246H46.4375L45.6875 239C41.1458 244.5 35.0833 247.25 27.5 247.25C19.5833 247.25 13.1667 244.062 8.25 237.688C3.375 231.312 0.9375 222.646 0.9375 211.688ZM16.125 213C16.125 219.875 17.4375 225.25 20.0625 229.125C22.7292 232.958 26.5 234.875 31.375 234.875C37.5833 234.875 42.125 232.104 45 226.562V197.688C42.2083 192.271 37.7083 189.562 31.5 189.562C26.5833 189.562 22.7917 191.521 20.125 195.438C17.4583 199.312 16.125 205.167 16.125 213ZM105.812 247.25C96.1875 247.25 88.375 244.229 82.375 238.188C76.4167 232.104 73.4375 224.021 73.4375 213.938V212.062C73.4375 205.312 74.7292 199.292 77.3125 194C79.9375 188.667 83.6042 184.521 88.3125 181.562C93.0208 178.604 98.2708 177.125 104.062 177.125C113.271 177.125 120.375 180.062 125.375 185.938C130.417 191.812 132.938 200.125 132.938 210.875V217H88.75C89.2083 222.583 91.0625 227 94.3125 230.25C97.6042 233.5 101.729 235.125 106.688 235.125C113.646 235.125 119.312 232.312 123.688 226.688L131.875 234.5C129.167 238.542 125.542 241.688 121 243.938C116.5 246.146 111.438 247.25 105.812 247.25ZM104 189.312C99.8333 189.312 96.4583 190.771 93.875 193.688C91.3333 196.604 89.7083 200.667 89 205.875H117.938V204.75C117.604 199.667 116.25 195.833 113.875 193.25C111.5 190.625 108.208 189.312 104 189.312ZM167.75 226.75L182.062 178.375H197.75L174.312 246H161.125L137.5 178.375H153.25L167.75 226.75ZM236.188 247.25C226.562 247.25 218.75 244.229 212.75 238.188C206.792 232.104 203.812 224.021 203.812 213.938V212.062C203.812 205.312 205.104 199.292 207.688 194C210.312 188.667 213.979 184.521 218.688 181.562C223.396 178.604 228.646 177.125 234.438 177.125C243.646 177.125 250.75 180.062 255.75 185.938C260.792 191.812 263.312 200.125 263.312 210.875V217H219.125C219.583 222.583 221.438 227 224.688 230.25C227.979 233.5 232.104 235.125 237.062 235.125C244.021 235.125 249.688 232.312 254.062 226.688L262.25 234.5C259.542 238.542 255.917 241.688 251.375 243.938C246.875 246.146 241.812 247.25 236.188 247.25ZM234.375 189.312C230.208 189.312 226.833 190.771 224.25 193.688C221.708 196.604 220.083 200.667 219.375 205.875H248.312V204.75C247.979 199.667 246.625 195.833 244.25 193.25C241.875 190.625 238.583 189.312 234.375 189.312ZM291.312 246H276.125V150H291.312V246ZM305.062 211.562C305.062 204.938 306.375 198.979 309 193.688C311.625 188.354 315.312 184.271 320.062 181.438C324.812 178.562 330.271 177.125 336.438 177.125C345.562 177.125 352.958 180.062 358.625 185.938C364.333 191.812 367.417 199.604 367.875 209.312L367.938 212.875C367.938 219.542 366.646 225.5 364.062 230.75C361.521 236 357.854 240.062 353.062 242.938C348.312 245.812 342.812 247.25 336.562 247.25C327.021 247.25 319.375 244.083 313.625 237.75C307.917 231.375 305.062 222.896 305.062 212.312V211.562ZM320.25 212.875C320.25 219.833 321.688 225.292 324.562 229.25C327.438 233.167 331.438 235.125 336.562 235.125C341.688 235.125 345.667 233.125 348.5 229.125C351.375 225.125 352.812 219.271 352.812 211.562C352.812 204.729 351.333 199.312 348.375 195.312C345.458 191.312 341.479 189.312 336.438 189.312C331.479 189.312 327.542 191.292 324.625 195.25C321.708 199.167 320.25 205.042 320.25 212.875ZM440 212.875C440 223.333 437.625 231.688 432.875 237.938C428.125 244.146 421.75 247.25 413.75 247.25C406.333 247.25 400.396 244.812 395.938 239.938V272H380.75V178.375H394.75L395.375 185.25C399.833 179.833 405.896 177.125 413.562 177.125C421.812 177.125 428.271 180.208 432.938 186.375C437.646 192.5 440 201.021 440 211.938V212.875ZM424.875 211.562C424.875 204.812 423.521 199.458 420.812 195.5C418.146 191.542 414.312 189.562 409.312 189.562C403.104 189.562 398.646 192.125 395.938 197.25V227.25C398.688 232.5 403.188 235.125 409.438 235.125C414.271 235.125 418.042 233.188 420.75 229.312C423.5 225.396 424.875 219.479 424.875 211.562ZM467.188 178.375L467.625 185.438C472.375 179.896 478.875 177.125 487.125 177.125C496.167 177.125 502.354 180.583 505.688 187.5C510.604 180.583 517.521 177.125 526.438 177.125C533.896 177.125 539.438 179.188 543.062 183.312C546.729 187.438 548.604 193.521 548.688 201.562V246H533.5V202C533.5 197.708 532.562 194.562 530.688 192.562C528.812 190.562 525.708 189.562 521.375 189.562C517.917 189.562 515.083 190.5 512.875 192.375C510.708 194.208 509.188 196.625 508.312 199.625L508.375 246H493.188V201.5C492.979 193.542 488.917 189.562 481 189.562C474.917 189.562 470.604 192.042 468.062 197V246H452.875V178.375H467.188ZM594.062 247.25C584.438 247.25 576.625 244.229 570.625 238.188C564.667 232.104 561.688 224.021 561.688 213.938V212.062C561.688 205.312 562.979 199.292 565.562 194C568.188 188.667 571.854 184.521 576.562 181.562C581.271 178.604 586.521 177.125 592.312 177.125C601.521 177.125 608.625 180.062 613.625 185.938C618.667 191.812 621.188 200.125 621.188 210.875V217H577C577.458 222.583 579.312 227 582.562 230.25C585.854 233.5 589.979 235.125 594.938 235.125C601.896 235.125 607.562 232.312 611.938 226.688L620.125 234.5C617.417 238.542 613.792 241.688 609.25 243.938C604.75 246.146 599.688 247.25 594.062 247.25ZM592.25 189.312C588.083 189.312 584.708 190.771 582.125 193.688C579.583 196.604 577.958 200.667 577.25 205.875H606.188V204.75C605.854 199.667 604.5 195.833 602.125 193.25C599.75 190.625 596.458 189.312 592.25 189.312ZM647.125 178.375L647.562 186.188C652.562 180.146 659.125 177.125 667.25 177.125C681.333 177.125 688.5 185.188 688.75 201.312V246H673.562V202.188C673.562 197.896 672.625 194.729 670.75 192.688C668.917 190.604 665.896 189.562 661.688 189.562C655.562 189.562 651 192.333 648 197.875V246H632.812V178.375H647.125ZM723.312 161.938V178.375H735.25V189.625H723.312V227.375C723.312 229.958 723.812 231.833 724.812 233C725.854 234.125 727.688 234.688 730.312 234.688C732.062 234.688 733.833 234.479 735.625 234.062V245.812C732.167 246.771 728.833 247.25 725.625 247.25C713.958 247.25 708.125 240.812 708.125 227.938V189.625H697V178.375H708.125V161.938H723.312Z" fill="#DBDDFB" fill-opacity="0.5"/>
</svg>
