<svg width="18" height="18" viewBox="0 0 18 18" fill="none" xmlns="http://www.w3.org/2000/svg">
<path d="M16.7927 4.59484C15.9879 3.18131 14.8962 2.06223 13.5174 1.23732C12.1384 0.412369 10.6329 0 8.99992 0C7.36712 0 5.86115 0.412495 4.48241 1.23732C3.10347 2.06218 2.01185 3.18131 1.20704 4.59484C0.402362 6.00832 0 7.55186 0 9.2254C0 11.2357 0.572164 13.0434 1.71678 14.649C2.86127 16.2547 4.33978 17.3658 6.15219 17.9824C6.36316 18.0226 6.51934 17.9943 6.62088 17.8985C6.72247 17.8024 6.7732 17.6822 6.7732 17.5382C6.7732 17.5142 6.77119 17.2981 6.76729 16.8896C6.76327 16.4811 6.76138 16.1247 6.76138 15.8206L6.49184 15.8684C6.31998 15.9007 6.10319 15.9144 5.84144 15.9105C5.57983 15.9067 5.30823 15.8786 5.02703 15.8264C4.74571 15.7746 4.48405 15.6545 4.24185 15.4663C3.99977 15.2781 3.82791 15.0317 3.72633 14.7276L3.60914 14.4512C3.53104 14.2672 3.40807 14.0627 3.24007 13.8386C3.07207 13.6143 2.90219 13.4623 2.73034 13.3822L2.64829 13.322C2.59362 13.282 2.54289 13.2337 2.49597 13.1777C2.4491 13.1217 2.414 13.0657 2.39057 13.0096C2.36709 12.9534 2.38655 12.9073 2.44914 12.8712C2.51173 12.835 2.62485 12.8175 2.78899 12.8175L3.02327 12.8534C3.17953 12.8855 3.37281 12.9814 3.60336 13.1416C3.83378 13.3018 4.0232 13.5099 4.17166 13.7661C4.35144 14.0945 4.56803 14.3448 4.82206 14.517C5.07588 14.6892 5.33179 14.7752 5.58955 14.7752C5.84731 14.7752 6.06994 14.7551 6.25751 14.7153C6.44488 14.6752 6.62068 14.615 6.78482 14.535C6.85513 13.9982 7.04656 13.5858 7.35895 13.2976C6.9137 13.2496 6.51339 13.1774 6.15782 13.0813C5.80245 12.9852 5.43523 12.8291 5.05638 12.6126C4.67733 12.3965 4.36289 12.1281 4.11297 11.8079C3.86301 11.4876 3.65787 11.067 3.49783 10.5466C3.33772 10.0259 3.25764 9.42538 3.25764 8.7447C3.25764 7.77552 3.56629 6.95079 4.18348 6.27002C3.89436 5.54138 3.92166 4.72456 4.26545 3.81962C4.49202 3.74747 4.82801 3.80161 5.27326 3.98173C5.7186 4.16194 6.04466 4.31631 6.25177 4.4443C6.45888 4.57225 6.62482 4.68067 6.74985 4.76861C7.47654 4.56047 8.22647 4.45637 8.99984 4.45637C9.7732 4.45637 10.5233 4.56047 11.25 4.76861L11.6953 4.48044C11.9998 4.28816 12.3594 4.11195 12.7732 3.95178C13.1873 3.79169 13.5039 3.74759 13.7228 3.81975C14.0742 4.72472 14.1055 5.54151 13.8163 6.27015C14.4335 6.95091 14.7422 7.77586 14.7422 8.74483C14.7422 9.42551 14.6619 10.028 14.502 10.5526C14.3419 11.0773 14.135 11.4975 13.8812 11.8139C13.6271 12.1304 13.3106 12.3967 12.9318 12.6128C12.5529 12.829 12.1855 12.9851 11.8302 13.0813C11.4746 13.1775 11.0743 13.2498 10.6291 13.2978C11.0352 13.658 11.2383 14.2267 11.2383 15.0035V17.5379C11.2383 17.6819 11.2871 17.8021 11.3849 17.8981C11.4825 17.994 11.6367 18.0222 11.8477 17.9821C13.6603 17.3655 15.1389 16.2544 16.2833 14.6487C17.4276 13.0431 18 11.2354 18 9.22506C17.9996 7.55173 17.597 6.00832 16.7927 4.59484Z" fill="white"/>
</svg>
