<svg width="22" height="22" viewBox="0 0 22 22" fill="none" xmlns="http://www.w3.org/2000/svg">
<path d="M1.34878 9.58105C1.34878 9.58105 11.0789 4.75164 14.4534 3.05109C15.747 2.37092 20.134 0.194203 20.134 0.194203C20.134 0.194203 22.1588 -0.758029 21.99 1.55463C21.9337 2.50695 21.4838 5.83991 21.0339 9.44502C20.3589 14.5466 19.6278 20.1242 19.6278 20.1242C19.6278 20.1242 19.5153 21.6888 18.5592 21.9608C17.6031 22.2329 16.0282 21.0086 15.747 20.7364C15.522 20.5324 11.5288 17.4714 10.0665 15.975C9.67274 15.5669 9.22283 14.7507 10.1227 13.7984C12.1475 11.5537 14.5659 8.76485 16.0282 6.99633C16.7032 6.18004 17.378 4.27548 14.5659 6.58813C10.5727 9.92118 6.63564 13.0501 6.63564 13.0501C6.63564 13.0501 5.73572 13.7303 4.04845 13.1181C2.3611 12.506 0.392589 11.6897 0.392589 11.6897C0.392589 11.6897 -0.957168 10.6694 1.34878 9.58105Z" fill="#686DCF"/>
</svg>
